<svg id="Layer_1" data-name="Layer 1" xmlns="http://www.w3.org/2000/svg" viewBox="0 0 186.4 186.4"><defs><style>.cls-1{fill:#97c9ab;}.cls-2{fill:none;stroke:#fff;stroke-linecap:round;stroke-linejoin:round;stroke-width:7.51px;}</style></defs><title>logo-2</title><circle class="cls-1" cx="93.2" cy="93.2" r="93.2"/><path class="cls-2" d="M120.4,104.9c-12.9,21.2-34.8,39.6-55.1,37.3-21.8-2.5-24.5-22.7-14.6-42.3,12.3-24.3,45.8-29.6,44-1.7m22.5,10.9c3.5-4.8,15.4-25,19.3-37,4-12.5,5.7-29.8-3.3-29.8-10,0-13.3,20.9-15.2,33.8-2.2,14.9-3.6,35.3-4.2,38.1-2.3,11.7-3.7,28.6-8.4,35m14.8-43.8c-1.6,8.8,22.5,4.5,21-6.2-1.2-8.8-12.1-13-20.5,5.1m-1.3,6.4c0,15.4,12.2,29.9,21.9,30.4,20.4,1.1,22.5-14.8,22.5-16.7" transform="translate(-13.8 -7.7)"/></svg>